<svg xmlns="http://www.w3.org/2000/svg" width="77.21" height="77.261" viewBox="0 0 77.21 77.261">
  <g id="Capability_icon" data-name="Capability icon" transform="translate(-1.459 -1.459)">
    <path id="Path_75" data-name="Path 75" d="M101.669,56.064l1.181-1.179,3.092-3.085a4.1,4.1,0,1,0-5.8-5.792l-4.273,4.264" transform="translate(-58.293 -26.42)" fill="none" stroke="#fff" stroke-linecap="round" stroke-linejoin="round" stroke-width="2"/>
    <path id="Path_76" data-name="Path 76" d="M145.024,95.4a3.613,3.613,0,0,0-5.084,0l-5.429,5.422a3.588,3.588,0,1,0,5.08,5.069l5.434-5.422A3.588,3.588,0,0,0,145.024,95.4Z" transform="translate(-81.768 -57.349)" fill="none" stroke="#fff" stroke-linecap="round" stroke-linejoin="round" stroke-width="2"/>
    <path id="Path_77" data-name="Path 77" d="M124.4,67.76l.591-.589a4.1,4.1,0,0,0-5.852-5.745L117,63.561" transform="translate(-71.489 -36.046)" fill="none" stroke="#fff" stroke-linecap="round" stroke-linejoin="round" stroke-width="2"/>
    <path id="Path_78" data-name="Path 78" d="M52.277,65.638A12.423,12.423,0,0,1,53.4,59.915L34.639,41.194m21.575,8.27,3.83,3.821A12.374,12.374,0,0,1,77.409,66.83c-.772,4.083-2.928.994-3.368.555l-5.265-5.254a4.61,4.61,0,1,0-6.512,6.5l5.266,5.254c.44.439,3.537,2.59-.556,3.36a12.365,12.365,0,0,1-13.355-6.5M31.431,24.74l-4.7-4.694A12.364,12.364,0,0,0,13.154,2.718c-4.093.77-1,2.922-.556,3.36l5.266,5.254a4.934,4.934,0,0,1,.228,6.725,4.961,4.961,0,0,1-6.74-.228L6.086,12.575c-.44-.439-2.6-3.528-3.368.555A12.374,12.374,0,0,0,20.085,26.676l4.976,4.965" transform="translate(0 0)" fill="none" stroke="#fff" stroke-linecap="round" stroke-linejoin="round" stroke-width="2"/>
    <path id="Path_79" data-name="Path 79" d="M24.851,140.874l6.5,6.489a2.58,2.58,0,0,1,0,3.644l-5.783,5.77a2.593,2.593,0,0,1-3.652,0L5.949,140.844a2.58,2.58,0,0,1,0-3.645l5.783-5.77a2.594,2.594,0,0,1,3.653,0l5.718,5.706" transform="translate(-1.683 -80.029)" fill="none" stroke="#fff" stroke-linecap="round" stroke-linejoin="round" stroke-width="2"/>
    <path id="Path_80" data-name="Path 80" d="M74.832,156.6l7.7-7.685c2.885-2.879,3.445-2.259,6.852-1.773,1.527.219,3.7-.594,5.455-1.67" transform="translate(-45.161 -89.268)" fill="none" stroke="#fff" stroke-linecap="round" stroke-linejoin="round" stroke-width="2"/>
    <path id="Path_81" data-name="Path 81" d="M131.989,79.731a4.124,4.124,0,0,0-5.8,0l-4.257,4.247a4.1,4.1,0,0,0,5.8,5.792l4.256-4.247A4.094,4.094,0,0,0,131.989,79.731Z" transform="translate(-73.817 -47.475)" fill="none" stroke="#fff" stroke-linecap="round" stroke-linejoin="round" stroke-width="2"/>
    <path id="Path_82" data-name="Path 82" d="M67.256,68.64c.116-1.131-1.755-2.84-3.678-4.759l-8.457-8.438a2.217,2.217,0,0,0-3.118,0l-6.982,6.966a7.954,7.954,0,0,0-2.173,6c.194,3.2-1.3,6.437-5.723,10.847l-4.8,4.794M53.236,65.146c.073.077,2.932,2.926,3.006,3,2.264,2.186,6.831,4.07,9.776,1.971" transform="translate(-18.619 -32.657)" fill="none" stroke="#fff" stroke-linecap="round" stroke-linejoin="round" stroke-width="2"/>
    <path id="Path_83" data-name="Path 83" d="M85.413,82.335c2.522,2.517,1.824,7.293-1.557,10.667" transform="translate(-50.795 -49.846)" fill="none" stroke="#fff" stroke-linecap="round" stroke-linejoin="round" stroke-width="2"/>
  </g>
</svg>
