<svg xmlns="http://www.w3.org/2000/svg" xmlns:xlink="http://www.w3.org/1999/xlink" width="80" height="80" viewBox="0 0 80 80">
  <defs>
    <clipPath id="clip-path">
      <rect id="Rectangle_232" data-name="Rectangle 232" width="80" height="80" transform="translate(911 7995)" fill="#fff"/>
    </clipPath>
  </defs>
  <g id="Bespoke_Approach" data-name="Bespoke Approach" transform="translate(-911 -7995)" opacity="0.4" clip-path="url(#clip-path)">
    <g id="Bespoke_Approach-2" data-name="Bespoke Approach" transform="translate(920.143 8000.714)">
      <line id="Line_38" data-name="Line 38" y1="68.571" transform="translate(6.904)" fill="none" stroke="#646464" stroke-width="2"/>
      <line id="Line_39" data-name="Line 39" y1="68.571" transform="translate(54.694)" fill="none" stroke="#646464" stroke-width="2"/>
      <path id="Path_243" data-name="Path 243" d="M13.809,21.818a6.9,6.9,0,1,0-6.9,6.9,6.9,6.9,0,0,0,6.9-6.9" transform="translate(0 -1.185)" fill="#0077b9"/>
      <line id="Line_40" data-name="Line 40" y1="68.571" transform="translate(30.799)" fill="none" stroke="#fff" stroke-width="2"/>
      <path id="Path_244" data-name="Path 244" d="M39.766,55.764a6.9,6.9,0,1,0-6.9,6.9,6.905,6.905,0,0,0,6.9-6.9" transform="translate(-2.062 -3.881)" fill="#5cb7e3"/>
      <path id="Path_245" data-name="Path 245" d="M65.722,34.014a6.9,6.9,0,1,0-6.9,6.9,6.9,6.9,0,0,0,6.9-6.9" transform="translate(-4.123 -2.153)" fill="#0077b9"/>
    </g>
  </g>
</svg>
