<svg xmlns="http://www.w3.org/2000/svg" xmlns:xlink="http://www.w3.org/1999/xlink" width="120" height="120" viewBox="0 0 120 120">
  <defs>
    <clipPath id="clip-path">
      <rect id="Rectangle_230" data-name="Rectangle 230" width="120" height="120" transform="translate(595 7264)" fill="#fff"/>
    </clipPath>
  </defs>
  <g id="Insight_centered" data-name="Insight centered" transform="translate(-595 -7264)" clip-path="url(#clip-path)">
    <g id="Insight_centered-2" data-name="Insight centered" transform="translate(603.571 7272.571)">
      <line id="Line_24" data-name="Line 24" y1="20.462" transform="translate(51.494 55.155)" fill="none" stroke="#5cb7e3" stroke-width="2"/>
      <path id="Path_205" data-name="Path 205" d="M47.857,41.429a6.429,6.429,0,1,0-6.429,6.429,6.429,6.429,0,0,0,6.429-6.429" transform="translate(10 10)" fill="#5cb7e3"/>
      <path id="Path_206" data-name="Path 206" d="M51.429,0a51.429,51.429,0,1,0,51.429,51.429A51.431,51.431,0,0,0,51.429,0M63.013,68.683A10.255,10.255,0,0,0,60.776,72.5c-.553,2.07-.746,3.137-.746,3.137H42.956s-.733-1.787-1.4-3.741a12.47,12.47,0,0,0-2.8-4,20.779,20.779,0,1,1,24.261.784" transform="translate(0 0)" fill="#0077b9"/>
      <path id="Path_207" data-name="Path 207" d="M45.634,55.413a12.857,12.857,0,1,0-5.554,0" transform="translate(8.571 8.571)" fill="none" stroke="#646464" stroke-width="2"/>
      <line id="Line_25" data-name="Line 25" x2="17.059" transform="translate(42.965 80.76)" fill="none" stroke="#fff" stroke-width="2"/>
      <line id="Line_26" data-name="Line 26" x2="17.059" transform="translate(42.965 85.903)" fill="none" stroke="#fff" stroke-width="2"/>
      <line id="Line_27" data-name="Line 27" x2="7.687" transform="translate(47.651 91.046)" fill="none" stroke="#fff" stroke-width="2"/>
      <path id="Path_208" data-name="Path 208" d="M31.94,61.08a12.672,12.672,0,0,1,2.809,4.008c.661,1.952,1.4,3.747,1.4,3.747H53.224s.193-1.07.748-3.147A10.137,10.137,0,0,1,56.2,61.873a20.783,20.783,0,1,0-24.267-.789Z" transform="translate(6.81 6.81)" fill="none" stroke="#fff" stroke-width="2"/>
    </g>
  </g>
</svg>
