<svg xmlns="http://www.w3.org/2000/svg" width="1164" height="60" viewBox="0 0 1164 60">
  <g id="our_practices_dots" data-name="our practices dots" transform="translate(-140 -4323)">
    <path id="Path_87" data-name="Path 87" d="M21329.453,1515h-1104.5v-2h1104.5Z" transform="translate(-20054.953 2839)" fill="#fff"/>
    <circle id="Ellipse_25" data-name="Ellipse 25" cx="30" cy="30" r="30" transform="translate(1244 4323)" fill="#1c1c1c"/>
    <path id="Ellipse_25_-_Outline" data-name="Ellipse 25 - Outline" d="M30,2A28.008,28.008,0,0,0,19.1,55.8,28.008,28.008,0,0,0,40.9,4.2,27.823,27.823,0,0,0,30,2m0-2A30,30,0,1,1,0,30,30,30,0,0,1,30,0Z" transform="translate(1244 4323)" fill="#fff"/>
    <circle id="Ellipse_26" data-name="Ellipse 26" cx="30" cy="30" r="30" transform="translate(692 4323)" fill="#1c1c1c"/>
    <path id="Ellipse_26_-_Outline" data-name="Ellipse 26 - Outline" d="M30,2A28.008,28.008,0,0,0,19.1,55.8,28.008,28.008,0,0,0,40.9,4.2,27.823,27.823,0,0,0,30,2m0-2A30,30,0,1,1,0,30,30,30,0,0,1,30,0Z" transform="translate(692 4323)" fill="#fff"/>
    <circle id="Ellipse_27" data-name="Ellipse 27" cx="30" cy="30" r="30" transform="translate(140 4323)" fill="#1c1c1c"/>
    <path id="Ellipse_27_-_Outline" data-name="Ellipse 27 - Outline" d="M30,2A28.008,28.008,0,0,0,19.1,55.8,28.008,28.008,0,0,0,40.9,4.2,27.823,27.823,0,0,0,30,2m0-2A30,30,0,1,1,0,30,30,30,0,0,1,30,0Z" transform="translate(140 4323)" fill="#fff"/>
  </g>
</svg>
