<svg xmlns="http://www.w3.org/2000/svg" width="380" height="524" viewBox="0 0 380 524">
  <g id="Group_176" data-name="Group 176" transform="translate(-1400 -6751)">
    <g id="Group_175" data-name="Group 175" transform="translate(1400 6751)">
      <path id="Path_314" data-name="Path 314" d="M190,0C294.934,0,380,85.066,380,190S294.934,380,190,380,0,294.934,0,190,85.066,0,190,0" fill="#1c1c1c"/>
      <circle id="Ellipse_111" data-name="Ellipse 111" cx="189" cy="189" r="189" transform="translate(1 1)" fill="none" stroke="#fff" stroke-width="2"/>
      <path id="Path_315" data-name="Path 315" d="M190,40A150,150,0,1,1,40,190,150,150,0,0,1,190,40" fill="#646464"/>
      <circle id="Ellipse_112" data-name="Ellipse 112" cx="149" cy="149" r="149" transform="translate(41 41)" fill="none" stroke="#fff" stroke-width="2"/>
      <path id="Path_316" data-name="Path 316" d="M190,80A110,110,0,1,1,80,190,110,110,0,0,1,190,80" fill="#1c1c1c"/>
      <circle id="Ellipse_113" data-name="Ellipse 113" cx="109" cy="109" r="109" transform="translate(81 81)" fill="none" stroke="#fff" stroke-width="2"/>
      <path id="Path_317" data-name="Path 317" d="M190,120a70,70,0,1,1-70,70,70,70,0,0,1,70-70" fill="#646464"/>
      <circle id="Ellipse_114" data-name="Ellipse 114" cx="69" cy="69" r="69" transform="translate(121 121)" fill="none" stroke="#fff" stroke-width="2"/>
      <path id="Path_318" data-name="Path 318" d="M190,160a30,30,0,1,1-30,30,30,30,0,0,1,30-30" fill="#0077b9"/>
      <circle id="Ellipse_115" data-name="Ellipse 115" cx="27.5" cy="27.5" r="27.5" transform="translate(162.5 162.5)" fill="none" stroke="#fff" stroke-width="5"/>
      <line id="Line_46" data-name="Line 46" x2="14.893" y2="14.893" transform="translate(210.408 210.408)" fill="none" stroke="#fff" stroke-linecap="round" stroke-width="5"/>
      <line id="Line_47" data-name="Line 47" y1="7.917" transform="translate(178.646 190.693)" fill="none" stroke="#fff" stroke-linecap="round" stroke-width="5"/>
      <line id="Line_48" data-name="Line 48" y1="20.784" transform="translate(190.646 177.826)" fill="none" stroke="#fff" stroke-linecap="round" stroke-width="5"/>
      <line id="Line_49" data-name="Line 49" y1="13.856" transform="translate(202.646 184.754)" fill="none" stroke="#fff" stroke-linecap="round" stroke-width="5"/>
      <path id="Path_319" data-name="Path 319" d="M102.887,168.716l-1.359,7.268,5.943,1.112,1.58-8.443,1.809.338-1.994,10.656-16.772-3.139,1.973-10.54,1.808.339-1.558,8.328,5.4,1.011,1.36-7.269Z" fill="#fff"/>
      <path id="Path_320" data-name="Path 320" d="M100.493,160.046l1.52.486a4.617,4.617,0,0,1-.4-4.195q1.394-3.77,5.659-2.23l7.86,2.9-.752,2.033-7.87-2.909a2.92,2.92,0,0,0-2.12-.115,2.516,2.516,0,0,0-1.279,1.57,3.125,3.125,0,0,0-.114,1.932,3.81,3.81,0,0,0,.954,1.676l8.475,3.133-.752,2.033-11.893-4.4Z" fill="#fff"/>
      <path id="Path_321" data-name="Path 321" d="M104.267,143.761l2.711,1.441,1.111-2.089,1.48.786-1.112,2.09,6.953,3.7a1.76,1.76,0,0,0,1.159.258,1.338,1.338,0,0,0,.843-.774,5.221,5.221,0,0,0,.359-.976l1.543.82a6.294,6.294,0,0,1-.575,1.579,2.7,2.7,0,0,1-1.805,1.523,3.781,3.781,0,0,1-2.551-.52l-6.943-3.69-1.083,2.038-1.48-.786,1.083-2.04-2.711-1.44Z" fill="#fff"/>
      <path id="Path_322" data-name="Path 322" d="M124,142.331a5.539,5.539,0,0,1-3.814,2.432,6.281,6.281,0,0,1-4.627-1.314l-.324-.231a7.63,7.63,0,0,1-2.325-2.543,5.632,5.632,0,0,1-.718-2.989,5.063,5.063,0,0,1,.948-2.771,4.75,4.75,0,0,1,3.558-2.184,7.054,7.054,0,0,1,4.593,1.593l.735.524-4.989,6.993a4.5,4.5,0,0,0,3.1.867,3.443,3.443,0,0,0,2.488-1.5,3.786,3.786,0,0,0,.748-1.856,4.894,4.894,0,0,0-.2-1.856l1.608-.48a5.323,5.323,0,0,1-.783,5.315m-9.41-6.382a2.892,2.892,0,0,0-.5,2.349,4.647,4.647,0,0,0,1.54,2.451l3.689-5.17-.133-.1a4.131,4.131,0,0,0-2.6-.762,2.728,2.728,0,0,0-1.991,1.228" fill="#fff"/>
      <path id="Path_323" data-name="Path 323" d="M125.025,124.235a6.5,6.5,0,0,0-.788.724,2.855,2.855,0,0,0-.649,3.354l6.577,6.145-1.481,1.584-9.264-8.657,1.44-1.541,1.094.974a3.374,3.374,0,0,1,.823-3.369,2.207,2.207,0,0,1,.775-.59Z" fill="#fff"/>
      <path id="Path_324" data-name="Path 324" d="M138.941,118.3a7.6,7.6,0,0,1,1.918,4.453,4.249,4.249,0,0,1-1.664,3.637,4.645,4.645,0,0,1-3.742,1.157l3.854,4.735-1.681,1.369-11.083-13.614,1.537-1.25.969,1.023a4.466,4.466,0,0,1,1.818-3.6,4.325,4.325,0,0,1,3.891-.947,7.681,7.681,0,0,1,4.058,2.878Zm-1.836,1.178a5.6,5.6,0,0,0-2.848-2.049,2.942,2.942,0,0,0-2.728.619,3.188,3.188,0,0,0-1.189,3.219l3.826,4.7a3.19,3.19,0,0,0,3.4-.533,2.929,2.929,0,0,0,1.141-2.524,6.115,6.115,0,0,0-1.605-3.43" fill="#fff"/>
      <path id="Path_325" data-name="Path 325" d="M145.232,109.1a6.439,6.439,0,0,0-.953.484,2.854,2.854,0,0,0-1.529,3.056l4.675,7.69-1.852,1.126-6.588-10.834,1.8-1.095.792,1.233a3.371,3.371,0,0,1,1.7-3.022,2.214,2.214,0,0,1,.906-.36Z" fill="#fff"/>
      <path id="Path_326" data-name="Path 326" d="M146.075,102.721a1.292,1.292,0,0,1-.1-.941,1.206,1.206,0,0,1,.7-.746,1.232,1.232,0,0,1,1.023-.095,1.285,1.285,0,0,1,.685.656,1.284,1.284,0,1,1-2.307,1.126m9.143,13.39-1.949.951-5.561-11.395,1.948-.951Z" fill="#fff"/>
      <path id="Path_327" data-name="Path 327" d="M164.645,108.791a1.6,1.6,0,0,0-1.075-1.07,6.394,6.394,0,0,0-2.456-.031,10.915,10.915,0,0,1-2.745.066,3.734,3.734,0,0,1-1.737-.635,2.8,2.8,0,0,1-.969-1.375,3.288,3.288,0,0,1,.375-2.924,5.149,5.149,0,0,1,2.825-2.128,5.3,5.3,0,0,1,3.67-.1,3.538,3.538,0,0,1,2.206,2.246l-2.059.719a1.953,1.953,0,0,0-1.22-1.2,2.828,2.828,0,0,0-2.009.02,2.96,2.96,0,0,0-1.578,1.1,1.621,1.621,0,0,0-.187,1.493,1.314,1.314,0,0,0,.977.912,7.656,7.656,0,0,0,2.37-.021,11.668,11.668,0,0,1,2.769-.048,3.837,3.837,0,0,1,1.811.652,2.983,2.983,0,0,1,1.028,1.472,3.243,3.243,0,0,1-.385,3.02,5.706,5.706,0,0,1-2.992,2.131,6.378,6.378,0,0,1-2.722.38,4.387,4.387,0,0,1-2.228-.818A3.628,3.628,0,0,1,157,110.891l2.047-.715a2.248,2.248,0,0,0,1.394,1.344,3.392,3.392,0,0,0,2.241-.107,3.477,3.477,0,0,0,1.7-1.121,1.53,1.53,0,0,0,.264-1.5" fill="#fff"/>
      <path id="Path_328" data-name="Path 328" d="M176.064,109.781a5.537,5.537,0,0,1-4.427-.926,6.287,6.287,0,0,1-2.393-4.173l-.07-.392a7.615,7.615,0,0,1,.114-3.443,5.638,5.638,0,0,1,1.574-2.641,5.077,5.077,0,0,1,2.616-1.32,4.749,4.749,0,0,1,4.07.925,7.053,7.053,0,0,1,2.174,4.349l.159.887-8.455,1.518a4.513,4.513,0,0,0,1.614,2.788,3.443,3.443,0,0,0,2.827.665,3.768,3.768,0,0,0,1.832-.805,4.877,4.877,0,0,0,1.154-1.469l1.485.782a5.323,5.323,0,0,1-4.274,3.255M173.792,98.64a2.893,2.893,0,0,0-2,1.329,4.638,4.638,0,0,0-.611,2.83l6.252-1.122-.03-.161a4.128,4.128,0,0,0-1.329-2.363,2.722,2.722,0,0,0-2.282-.513" fill="#fff"/>
      <path id="Path_329" data-name="Path 329" d="M190.1,103.553a4,4,0,0,1,.848-2.206,10.5,10.5,0,0,1,2.787-2.206,11.334,11.334,0,0,1-1.357-2.331,4.317,4.317,0,0,1,1.1-4.655,4.316,4.316,0,0,1,3.189-.872,4.206,4.206,0,0,1,2.824,1.234,3.314,3.314,0,0,1,.957,2.66,3.653,3.653,0,0,1-.658,1.862,6.775,6.775,0,0,1-1.951,1.7l-1.318.832,3.457,4.8a7.186,7.186,0,0,0,1.041-3.319l1.952.141a8.175,8.175,0,0,1-1.8,4.84l2.218,3.087-2.594-.189L199.76,107.5a5.951,5.951,0,0,1-2.113,1.026,7.193,7.193,0,0,1-2.4.231,5.871,5.871,0,0,1-3.9-1.612,4.417,4.417,0,0,1-1.254-3.593m5.284,3.44a4.557,4.557,0,0,0,3.239-1.08l-3.787-5.27-.407.253q-2.057,1.3-2.167,2.815a2.878,2.878,0,0,0,.734,2.274,3.463,3.463,0,0,0,2.388,1.008m-1.1-11.795a4.914,4.914,0,0,0,1.175,2.9l1.45-.869a3.678,3.678,0,0,0,1.165-.99,2.445,2.445,0,0,0,.382-1.212,1.679,1.679,0,0,0-.489-1.346,2.143,2.143,0,0,0-1.435-.627,1.911,1.911,0,0,0-1.567.537,2.433,2.433,0,0,0-.681,1.6" fill="#fff"/>
      <path id="Path_330" data-name="Path 330" d="M212.794,111.57l3.256-10.51-1.914-.593.495-1.6,1.915.592.385-1.241a4.316,4.316,0,0,1,1.973-2.69,4.122,4.122,0,0,1,3.274-.151,5.7,5.7,0,0,1,1.363.63l-.63,1.633a6.31,6.31,0,0,0-1.088-.446,2.113,2.113,0,0,0-1.738.106,2.509,2.509,0,0,0-1.072,1.521l-.4,1.28,2.586.8-.5,1.6-2.586-.8-3.256,10.512Z" fill="#fff"/>
      <path id="Path_331" data-name="Path 331" d="M230.044,106.652a6.445,6.445,0,0,0-.946-.5,2.857,2.857,0,0,0-3.378.518l-3.572,8.26-1.991-.86,5.033-11.638,1.936.837-.549,1.359a3.376,3.376,0,0,1,3.449-.36,2.208,2.208,0,0,1,.818.532Z" fill="#fff"/>
      <path id="Path_332" data-name="Path 332" d="M230.6,111.585a7.476,7.476,0,0,1,2.361-2.488,5.472,5.472,0,0,1,2.933-.91,5.557,5.557,0,0,1,2.971.852,5.349,5.349,0,0,1,2.656,3.7,6.9,6.9,0,0,1-1.1,4.909l-.079.131a7.56,7.56,0,0,1-2.326,2.475,5.38,5.38,0,0,1-2.92.91,5.608,5.608,0,0,1-3.017-.866,5.332,5.332,0,0,1-2.646-3.7,6.866,6.866,0,0,1,1.087-4.889Zm1.731,1.349a5.426,5.426,0,0,0-.916,3.4,3.315,3.315,0,0,0,4.5,2.7,5.931,5.931,0,0,0,2.71-2.6,5.408,5.408,0,0,0,.9-3.405,3.144,3.144,0,0,0-1.58-2.47,3.11,3.11,0,0,0-2.877-.248,5.888,5.888,0,0,0-2.735,2.618" fill="#fff"/>
      <path id="Path_333" data-name="Path 333" d="M249.351,116.632l-.987,1.252a4.621,4.621,0,0,1,4.069,1.1q3.044,2.625.108,6.082l-5.471,6.345-1.642-1.416,5.48-6.354a2.915,2.915,0,0,0,.848-1.944,2.5,2.5,0,0,0-1.022-1.748,3.129,3.129,0,0,0-1.77-.784,3.81,3.81,0,0,0-1.9.307l-5.9,6.843-1.643-1.416,8.28-9.6Z" fill="#fff"/>
      <path id="Path_334" data-name="Path 334" d="M263.283,125.848l-2.3,2.039,1.572,1.77L261.3,130.77,259.734,129l-5.887,5.229a1.756,1.756,0,0,0-.645,1,1.332,1.332,0,0,0,.431,1.059,5.131,5.131,0,0,0,.79.677l-1.307,1.161a6.28,6.28,0,0,1-1.279-1.089,2.7,2.7,0,0,1-.8-2.223,3.774,3.774,0,0,1,1.376-2.209l5.88-5.222-1.533-1.725,1.252-1.114,1.534,1.727,2.3-2.039Z" fill="#fff"/>
      <path id="Path_335" data-name="Path 335" d="M261.164,150.435a5.537,5.537,0,0,1-.593-4.484,6.283,6.283,0,0,1,3.145-3.639l.347-.2a7.6,7.6,0,0,1,3.287-1.033,5.614,5.614,0,0,1,3.012.612,5.054,5.054,0,0,1,2.112,2.029,4.749,4.749,0,0,1,.475,4.148,7.055,7.055,0,0,1-3.383,3.491l-.786.444-4.23-7.476a4.5,4.5,0,0,0-2.1,2.446,3.44,3.44,0,0,0,.309,2.888,3.771,3.771,0,0,0,1.366,1.462,4.872,4.872,0,0,0,1.768.6l-.245,1.66a5.322,5.322,0,0,1-4.487-2.955m9.76-5.833a2.893,2.893,0,0,0-1.917-1.447,4.645,4.645,0,0,0-2.873.36l3.129,5.527.142-.081a4.122,4.122,0,0,0,1.79-2.036,2.722,2.722,0,0,0-.271-2.323" fill="#fff"/>
      <path id="Path_336" data-name="Path 336" d="M277.547,154.718l-1.473.615a4.62,4.62,0,0,1,3.026,2.934q1.387,3.771-2.859,5.37l-7.863,2.89-.749-2.036,7.876-2.893a2.923,2.923,0,0,0,1.688-1.288,2.523,2.523,0,0,0-.046-2.025,3.131,3.131,0,0,0-1.167-1.544,3.831,3.831,0,0,0-1.815-.656l-8.48,3.116-.747-2.035,11.9-4.373Z" fill="#fff"/>
      <path id="Path_337" data-name="Path 337" d="M275.566,168.245a7.431,7.431,0,0,1,4.867.5,4.707,4.707,0,0,1,1.555,6.983l6.5-1.209.4,2.131-17.7,3.291-.364-1.959,1.317-.352a4.416,4.416,0,0,1-2.229-3.269,4.331,4.331,0,0,1,1.118-3.861,7.507,7.507,0,0,1,4.378-2.226Zm.154,2.177a5.632,5.632,0,0,0-3.155,1.492,2.877,2.877,0,0,0-.748,2.643,3.164,3.164,0,0,0,2.371,2.623l5.725-1.066a3.186,3.186,0,0,0,1.217-3.265,2.893,2.893,0,0,0-1.664-2.217,6.184,6.184,0,0,0-3.746-.21" fill="#fff"/>
      <path id="Path_338" data-name="Path 338" d="M142.16,205.445l2.935,6.787,5.55-2.4-3.409-7.884,1.689-.731,4.3,9.95-15.661,6.772L133.31,208.1l1.689-.729,3.362,7.776,5.045-2.181-2.934-6.788Z" fill="#fff"/>
      <path id="Path_339" data-name="Path 339" d="M140.126,195.66l-4.913-2.282-.28-2.516,6.69,3.428,5.9-4.962.278,2.491-4.392,3.439,5.041,2.385.281,2.5-6.846-3.54-5.771,4.819-.278-2.493Z" fill="#fff"/>
      <path id="Path_340" data-name="Path 340" d="M132.6,182.347l3.048.369.284-2.35,1.664.2-.284,2.35,7.816.946a1.766,1.766,0,0,0,1.174-.178,1.337,1.337,0,0,0,.508-1.025,5.314,5.314,0,0,0-.017-1.041l1.736.21a6.3,6.3,0,0,1,.031,1.681,2.7,2.7,0,0,1-1.135,2.069,3.77,3.77,0,0,1-2.567.434l-7.807-.943-.276,2.292-1.664-.2.277-2.291-3.048-.368Z" fill="#fff"/>
      <path id="Path_341" data-name="Path 341" d="M151.021,174.569a5.543,5.543,0,0,1-3.077,3.316,6.29,6.29,0,0,1-4.809-.1l-.372-.143a7.6,7.6,0,0,1-2.892-1.874,5.624,5.624,0,0,1-1.449-2.711,5.069,5.069,0,0,1,.218-2.92,4.748,4.748,0,0,1,2.893-3.011,7.05,7.05,0,0,1,4.845.382l.844.321-3.063,8.026a4.5,4.5,0,0,0,3.221.056,3.438,3.438,0,0,0,2.029-2.078,3.765,3.765,0,0,0,.255-1.986A4.877,4.877,0,0,0,149,170.1l1.436-.87a5.327,5.327,0,0,1,.584,5.341m-10.717-3.8a2.893,2.893,0,0,0,.107,2.4,4.642,4.642,0,0,0,2.109,1.985l2.264-5.935-.153-.058a4.129,4.129,0,0,0-2.71-.081,2.724,2.724,0,0,0-1.617,1.69" fill="#fff"/>
      <path id="Path_342" data-name="Path 342" d="M148.762,156.7a6.639,6.639,0,0,0-.679.828,2.859,2.859,0,0,0-.169,3.413l7.378,5.154-1.242,1.778L143.657,160.6l1.208-1.728,1.22.809a3.381,3.381,0,0,1,.339-3.452,2.19,2.19,0,0,1,.686-.692Z" fill="#fff"/>
      <path id="Path_343" data-name="Path 343" d="M152.024,150.352l1.094,1.16a4.614,4.614,0,0,1,1.683-3.861q3.047-2.624,6.032.79l5.468,6.348-1.642,1.416-5.476-6.358a2.921,2.921,0,0,0-1.8-1.127,2.522,2.522,0,0,0-1.88.753,3.136,3.136,0,0,0-1.035,1.634,3.828,3.828,0,0,0,.022,1.93l5.9,6.846-1.642,1.414-8.275-9.607Z" fill="#fff"/>
      <path id="Path_344" data-name="Path 344" d="M176.067,150.107a4.572,4.572,0,0,1-.808-1.108,4.827,4.827,0,0,1-2.7,2.867,4.471,4.471,0,0,1-3.245.242,3.435,3.435,0,0,1-2.165-2,3.583,3.583,0,0,1,.169-3.421,7.091,7.091,0,0,1,3.46-2.679l1.937-.833-.392-.916a2.436,2.436,0,0,0-1.34-1.394,2.733,2.733,0,0,0-2.107.172,3.159,3.159,0,0,0-1.556,1.305,1.729,1.729,0,0,0-.161,1.613l-2,.861a2.992,2.992,0,0,1-.105-1.952,4.61,4.61,0,0,1,1.126-2.008,6.177,6.177,0,0,1,2.128-1.475,5.012,5.012,0,0,1,3.587-.349,3.95,3.95,0,0,1,2.376,2.264l2.3,5.362a7.108,7.108,0,0,0,1.506,2.375l.074.173Zm-3.958-.1a3.822,3.822,0,0,0,1.568-1.248,3.189,3.189,0,0,0,.676-1.782l-1.027-2.391-1.562.671q-3.66,1.573-2.74,3.716a1.981,1.981,0,0,0,1.254,1.2,2.621,2.621,0,0,0,1.831-.162" fill="#fff"/>
      <rect id="Rectangle_235" data-name="Rectangle 235" width="2.168" height="18" transform="matrix(0.984, -0.179, 0.179, 0.984, 178.08, 131.035)" fill="#fff"/>
      <rect id="Rectangle_236" data-name="Rectangle 236" width="17.062" height="2.25" transform="translate(193.995 148.026) rotate(-83.106)" fill="#fff"/>
      <path id="Path_345" data-name="Path 345" d="M206.309,137.565l-.488,1.52a4.617,4.617,0,0,1,4.2-.4q3.77,1.4,2.225,5.663l-2.915,7.856-2.033-.754,2.919-7.867a2.92,2.92,0,0,0,.118-2.119,2.515,2.515,0,0,0-1.569-1.282,3.137,3.137,0,0,0-1.931-.117,3.822,3.822,0,0,0-1.678.952l-3.144,8.472-2.032-.754,4.411-11.888Z" fill="#fff"/>
      <path id="Path_346" data-name="Path 346" d="M219.866,155.549a1.6,1.6,0,0,0,.3-1.486A6.4,6.4,0,0,0,218.844,152a10.974,10.974,0,0,1-1.565-2.258,3.724,3.724,0,0,1-.424-1.8,2.8,2.8,0,0,1,.615-1.566,3.285,3.285,0,0,1,2.648-1.295,5.139,5.139,0,0,1,3.331,1.19,5.293,5.293,0,0,1,2.1,3.009,3.535,3.535,0,0,1-.664,3.077l-1.731-1.325a1.955,1.955,0,0,0,.331-1.678,2.828,2.828,0,0,0-1.121-1.668,2.965,2.965,0,0,0-1.784-.715,1.627,1.627,0,0,0-1.35.665,1.317,1.317,0,0,0-.224,1.318,7.609,7.609,0,0,0,1.32,1.968,11.641,11.641,0,0,1,1.563,2.285,3.848,3.848,0,0,1,.452,1.872,2.981,2.981,0,0,1-.664,1.669,3.241,3.241,0,0,1-2.734,1.339,5.7,5.7,0,0,1-3.425-1.327,6.367,6.367,0,0,1-1.814-2.064,4.367,4.367,0,0,1-.543-2.31,3.616,3.616,0,0,1,.744-2.064l1.723,1.315a2.243,2.243,0,0,0-.357,1.9,3.392,3.392,0,0,0,1.321,1.814,3.493,3.493,0,0,0,1.872.8,1.525,1.525,0,0,0,1.4-.605" fill="#fff"/>
      <path id="Path_347" data-name="Path 347" d="M222.9,163.635l-1.4-1.655,9.682-8.186,1.4,1.654Zm10.735-12.149a1.284,1.284,0,0,1,.889-.329,1.207,1.207,0,0,1,.893.495,1.23,1.23,0,0,1,.344.968,1.287,1.287,0,0,1-.469.826,1.224,1.224,0,0,1-.883.316,1.28,1.28,0,0,1-.774-2.276" fill="#fff"/>
      <path id="Path_348" data-name="Path 348" d="M230.732,162.91a7.458,7.458,0,0,1,4.824-.926,4.727,4.727,0,0,1,3.4,6.409l1.3-.546.9,1.762-11.019,5.633a5.159,5.159,0,0,1-4.117.467,5.382,5.382,0,0,1-3.047-2.846,6.489,6.489,0,0,1-.7-2.655,4.621,4.621,0,0,1,.516-2.516l1.671.41a4.24,4.24,0,0,0,.018,3.822,3.322,3.322,0,0,0,1.916,1.789,3.393,3.393,0,0,0,2.635-.354l.971-.495a4.451,4.451,0,0,1-2.952-2.479,4.329,4.329,0,0,1-.043-4.025,7.837,7.837,0,0,1,3.724-3.45m.773,2.053a5.686,5.686,0,0,0-2.6,2.315,2.854,2.854,0,0,0,.03,2.75,3.175,3.175,0,0,0,3.03,1.833l5.154-2.634a3.214,3.214,0,0,0,.257-3.489,2.877,2.877,0,0,0-2.221-1.64,6.2,6.2,0,0,0-3.65.865" fill="#fff"/>
      <path id="Path_349" data-name="Path 349" d="M242.119,178.523a4.616,4.616,0,0,1,2.356,3.413q.654,3.966-3.816,4.737l-8.268,1.363-.352-2.14,8.279-1.363a2.922,2.922,0,0,0,1.9-.948,2.517,2.517,0,0,0,.336-2,3.133,3.133,0,0,0-.856-1.734,3.8,3.8,0,0,0-1.659-.985l-8.915,1.468-.353-2.14,17.761-2.926.353,2.14Z" fill="#fff"/>
      <path id="Path_350" data-name="Path 350" d="M247.637,195.531l-3.06-.257-.2,2.36-1.67-.14.2-2.359-7.846-.655a1.747,1.747,0,0,0-1.166.221,1.324,1.324,0,0,0-.47,1.042,5.177,5.177,0,0,0,.055,1.04l-1.742-.147a6.279,6.279,0,0,1-.094-1.677,2.7,2.7,0,0,1,1.058-2.111,3.785,3.785,0,0,1,2.549-.528l7.836.655.193-2.3,1.669.139-.192,2.3,3.06.255Z" fill="#fff"/>
      <path id="Path_351" data-name="Path 351" d="M232.265,207.132a1.6,1.6,0,0,0,1.505-.194,6.387,6.387,0,0,0,1.527-1.922,10.918,10.918,0,0,1,1.63-2.211,3.716,3.716,0,0,1,1.566-.985,2.8,2.8,0,0,1,1.68.075,3.287,3.287,0,0,1,2.081,2.087,5.146,5.146,0,0,1-.047,3.539,5.31,5.31,0,0,1-2.166,2.963,3.536,3.536,0,0,1-3.127.367l.693-2.067a1.955,1.955,0,0,0,1.7-.228,2.839,2.839,0,0,0,1.216-1.6,2.974,2.974,0,0,0,.1-1.92,1.628,1.628,0,0,0-1.067-1.061,1.315,1.315,0,0,0-1.319.212,7.616,7.616,0,0,0-1.435,1.886,11.644,11.644,0,0,1-1.658,2.22,3.83,3.83,0,0,1-1.624,1.031,2.969,2.969,0,0,1-1.794-.087,3.247,3.247,0,0,1-2.152-2.155,5.694,5.694,0,0,1,.148-3.669,6.353,6.353,0,0,1,1.367-2.384,4.381,4.381,0,0,1,2.01-1.262,3.619,3.619,0,0,1,2.193.036l-.687,2.057a2.24,2.24,0,0,0-1.917.278,3.39,3.39,0,0,0-1.288,1.836,3.479,3.479,0,0,0-.154,2.031,1.53,1.53,0,0,0,1.024,1.128" fill="#fff"/>
      <path id="Path_352" data-name="Path 352" d="M80.614,116.64a10.541,10.541,0,0,1,3.321,2.972,6.392,6.392,0,0,1,1.221,3.517,6.573,6.573,0,0,1-1.011,3.6,6.365,6.365,0,0,1-6.352,3.183,10.116,10.116,0,0,1-4.1-1.423l-1.056-.633a10.438,10.438,0,0,1-3.29-2.967,6.326,6.326,0,0,1-.255-7.146,6.609,6.609,0,0,1,2.707-2.593,6.387,6.387,0,0,1,3.7-.592,10.616,10.616,0,0,1,4.189,1.526Zm-2.1,1.354a7.65,7.65,0,0,0-4.623-1.348,4.024,4.024,0,0,0-3.145,2.092,3.98,3.98,0,0,0-.332,3.714,7.484,7.484,0,0,0,3.219,3.4l1.075.644a7.661,7.661,0,0,0,4.6,1.315,4.333,4.333,0,0,0,3.563-5.768,7.616,7.616,0,0,0-3.273-3.4Z" fill="#fff"/>
      <path id="Path_353" data-name="Path 353" d="M84.725,106.569a6.4,6.4,0,0,0-.706.805,2.858,2.858,0,0,0-.282,3.406l7.2,5.4-1.3,1.736-10.146-7.606,1.265-1.687,1.194.85a3.373,3.373,0,0,1,.453-3.439,2.221,2.221,0,0,1,.708-.67Z" fill="#fff"/>
      <path id="Path_354" data-name="Path 354" d="M89.625,107.223a7.456,7.456,0,0,1-2.587-4.176,4.725,4.725,0,0,1,4.771-5.465l-.975-1.019,1.326-1.472,9.2,8.281a5.156,5.156,0,0,1,1.906,3.679,5.388,5.388,0,0,1-1.569,3.863,6.55,6.55,0,0,1-2.231,1.6,4.621,4.621,0,0,1-2.534.415l-.214-1.707a4.237,4.237,0,0,0,3.562-1.382,3.321,3.321,0,0,0,.989-2.428,3.409,3.409,0,0,0-1.271-2.336l-.811-.729a4.453,4.453,0,0,1-1.261,3.642,4.33,4.33,0,0,1-3.744,1.478,7.836,7.836,0,0,1-4.553-2.246m1.642-1.455a5.688,5.688,0,0,0,3.092,1.6,2.856,2.856,0,0,0,2.556-1.009,3.178,3.178,0,0,0,.631-3.486L93.244,99a3.214,3.214,0,0,0-3.349,1.006,2.879,2.879,0,0,0-.74,2.661,6.187,6.187,0,0,0,2.112,3.1" fill="#fff"/>
      <path id="Path_355" data-name="Path 355" d="M110.116,95.72a4.5,4.5,0,0,1-1.115-.8,4.842,4.842,0,0,1-1.653,3.573,4.479,4.479,0,0,1-3,1.252,3.432,3.432,0,0,1-2.686-1.211,3.586,3.586,0,0,1-.919-3.3,7.09,7.09,0,0,1,2.437-3.634l1.576-1.4-.662-.744a2.433,2.433,0,0,0-1.712-.9,2.728,2.728,0,0,0-1.945.828,3.161,3.161,0,0,0-1.064,1.73,1.728,1.728,0,0,0,.356,1.582L98.1,94.147a2.989,2.989,0,0,1-.716-1.819,4.6,4.6,0,0,1,.435-2.261A6.148,6.148,0,0,1,99.37,88a5.012,5.012,0,0,1,3.293-1.463,3.949,3.949,0,0,1,2.969,1.4l3.88,4.36a7.119,7.119,0,0,0,2.178,1.778l.124.141Zm-3.786,1.157a3.814,3.814,0,0,0,1.094-1.68,3.189,3.189,0,0,0,.078-1.9l-1.729-1.943L104.5,92.479q-2.979,2.648-1.427,4.39a1.969,1.969,0,0,0,1.566.739,2.6,2.6,0,0,0,1.687-.731" fill="#fff"/>
      <path id="Path_356" data-name="Path 356" d="M108.874,80.53l.979,1.259a4.622,4.622,0,0,1,2.04-3.688q3.278-2.325,5.931,1.353l4.848,6.834L120.9,87.543,116.049,80.7a2.921,2.921,0,0,0-1.685-1.291,2.517,2.517,0,0,0-1.942.573,3.138,3.138,0,0,0-1.185,1.53,3.818,3.818,0,0,0-.158,1.923l5.228,7.369-1.769,1.255L107.2,81.717Z" fill="#fff"/>
      <path id="Path_357" data-name="Path 357" d="M117.838,70.5a1.293,1.293,0,0,1-.177-.931,1.208,1.208,0,0,1,.637-.8,1.227,1.227,0,0,1,1.011-.178,1.286,1.286,0,0,1,.737.6,1.172,1.172,0,0,1-.482,1.716,1.232,1.232,0,0,1-1,.184,1.247,1.247,0,0,1-.725-.591m10.2,12.606-1.865,1.1L119.7,73.3l1.865-1.105Z" fill="#fff"/>
      <path id="Path_358" data-name="Path 358" d="M132.638,78.544l6.653-3.28.783,1.588-9.03,4.45-.7-1.43,2.166-11.429-6.18,3.047-.793-1.608,8.619-4.248.679,1.377Z" fill="#fff"/>
      <path id="Path_359" data-name="Path 359" d="M150.152,73a4.589,4.589,0,0,1-.747-1.15,4.836,4.836,0,0,1-2.846,2.719,4.473,4.473,0,0,1-3.253.066,3.43,3.43,0,0,1-2.055-2.11,3.587,3.587,0,0,1,.352-3.407,7.1,7.1,0,0,1,3.6-2.49l1.98-.727-.344-.936a2.432,2.432,0,0,0-1.262-1.464,2.737,2.737,0,0,0-2.114.058,3.16,3.16,0,0,0-1.623,1.222,1.722,1.722,0,0,0-.248,1.6l-2.046.752a2.983,2.983,0,0,1,0-1.954,4.6,4.6,0,0,1,1.232-1.945,6.158,6.158,0,0,1,2.2-1.359,5.018,5.018,0,0,1,3.6-.156,3.961,3.961,0,0,1,2.251,2.388l2.013,5.477a7.115,7.115,0,0,0,1.376,2.454l.064.176Zm-3.947-.311a3.8,3.8,0,0,0,1.634-1.162,3.187,3.187,0,0,0,.769-1.743l-.9-2.443-1.6.586q-3.739,1.375-2.935,3.564a1.974,1.974,0,0,0,1.187,1.261,2.608,2.608,0,0,0,1.837-.063" fill="#fff"/>
      <path id="Path_360" data-name="Path 360" d="M154.435,55.3l.8,2.965,2.286-.613.435,1.618-2.287.614,2.042,7.6a1.755,1.755,0,0,0,.6,1.022,1.329,1.329,0,0,0,1.14.089,5.294,5.294,0,0,0,.96-.4l.453,1.688a6.3,6.3,0,0,1-1.547.656,2.7,2.7,0,0,1-2.345-.281,3.778,3.778,0,0,1-1.36-2.219l-2.039-7.594-2.23.6-.434-1.618,2.229-.6-.8-2.965Z" fill="#fff"/>
      <path id="Path_361" data-name="Path 361" d="M160.786,53.482a1.29,1.29,0,0,1,.139-.937,1.2,1.2,0,0,1,.863-.546,1.225,1.225,0,0,1,1.014.164,1.282,1.282,0,0,1,.5.806,1.284,1.284,0,1,1-2.515.513m5.5,15.253-2.125.432L161.63,56.743l2.124-.433Z" fill="#fff"/>
      <path id="Path_362" data-name="Path 362" d="M168.963,61.573a7.475,7.475,0,0,1,.337-3.414,5.466,5.466,0,0,1,1.757-2.519,5.555,5.555,0,0,1,2.869-1.151,5.352,5.352,0,0,1,4.369,1.293,6.9,6.9,0,0,1,2.144,4.551l.018.151a7.553,7.553,0,0,1-.317,3.382,5.38,5.38,0,0,1-1.747,2.512,5.615,5.615,0,0,1-2.913,1.168,5.338,5.338,0,0,1-4.358-1.294,6.873,6.873,0,0,1-2.142-4.528Zm2.2,0a5.426,5.426,0,0,0,1.366,3.25,3.316,3.316,0,0,0,5.206-.629,5.93,5.93,0,0,0,.544-3.716,5.408,5.408,0,0,0-1.378-3.242,3.146,3.146,0,0,0-2.763-.979,3.111,3.111,0,0,0-2.423,1.57,5.876,5.876,0,0,0-.552,3.746" fill="#fff"/>
      <path id="Path_363" data-name="Path 363" d="M186.215,53.836l.1,1.593a4.619,4.619,0,0,1,3.766-1.89q4.019-.065,4.127,4.469l.136,8.378-2.167.035-.137-8.39a2.914,2.914,0,0,0-.659-2.016,2.512,2.512,0,0,0-1.927-.625,3.126,3.126,0,0,0-1.841.592,3.8,3.8,0,0,0-1.218,1.5l.145,9.034-2.167.035-.206-12.679Z" fill="#fff"/>
      <path id="Path_364" data-name="Path 364" d="M205.076,62.606a4.005,4.005,0,0,1,1.049-2.119,10.453,10.453,0,0,1,2.98-1.937,11.266,11.266,0,0,1-1.136-2.447A4.32,4.32,0,0,1,209.5,51.57,4.317,4.317,0,0,1,212.754,51a4.212,4.212,0,0,1,2.7,1.49,3.321,3.321,0,0,1,.707,2.739,3.656,3.656,0,0,1-.829,1.792,6.792,6.792,0,0,1-2.1,1.509l-1.389.706,3,5.1a7.179,7.179,0,0,0,1.344-3.209l1.931.322a8.175,8.175,0,0,1-2.239,4.652l1.923,3.28-2.565-.429-.9-1.516a5.947,5.947,0,0,1-2.2.826,7.178,7.178,0,0,1-2.407.008,5.864,5.864,0,0,1-3.735-1.967,4.415,4.415,0,0,1-.916-3.693m4.942,3.915a4.567,4.567,0,0,0,3.326-.776l-3.283-5.6-.428.213q-2.167,1.1-2.419,2.6a2.88,2.88,0,0,0,.52,2.332,3.469,3.469,0,0,0,2.284,1.226m-.005-11.847a4.932,4.932,0,0,0,.9,3l1.525-.731a3.706,3.706,0,0,0,1.252-.878,2.444,2.444,0,0,0,.492-1.171,1.674,1.674,0,0,0-.362-1.386,2.144,2.144,0,0,0-1.37-.758,1.915,1.915,0,0,0-1.611.391,2.426,2.426,0,0,0-.826,1.531" fill="#fff"/>
      <path id="Path_365" data-name="Path 365" d="M238.528,69.514a7.542,7.542,0,0,1-2.816,3.959,4.261,4.261,0,0,1-3.967.469,4.42,4.42,0,0,1-2.938-2.839l-.587,1.347-1.879-.664,5.994-16.973,2.043.722-2.235,6.332a4.393,4.393,0,0,1,3.957-.33,4.289,4.289,0,0,1,2.839,2.853,7.771,7.771,0,0,1-.35,4.947Zm-1.963-.954a5.853,5.853,0,0,0,.333-3.511,2.836,2.836,0,0,0-1.919-1.958,3.184,3.184,0,0,0-3.569.853l-1.826,5.172a3.271,3.271,0,0,0,2.264,2.912,2.823,2.823,0,0,0,2.69-.33,6.234,6.234,0,0,0,2.027-3.138" fill="#fff"/>
      <path id="Path_366" data-name="Path 366" d="M246.458,80.053a4.561,4.561,0,0,1,.308-1.335,4.841,4.841,0,0,1-3.932-.161,4.48,4.48,0,0,1-2.306-2.3,3.433,3.433,0,0,1,.092-2.945,3.584,3.584,0,0,1,2.7-2.111,7.1,7.1,0,0,1,4.29.861l1.9.92.435-.9a2.437,2.437,0,0,0,.179-1.926,2.734,2.734,0,0,0-1.51-1.48,3.158,3.158,0,0,0-2.006-.321,1.728,1.728,0,0,0-1.325.934l-1.962-.951a2.993,2.993,0,0,1,1.406-1.357,4.6,4.6,0,0,1,2.256-.463,6.159,6.159,0,0,1,2.508.643,5.013,5.013,0,0,1,2.612,2.483,3.953,3.953,0,0,1-.156,3.279L249.4,78.182a7.11,7.11,0,0,0-.81,2.693l-.083.169ZM243.941,77a3.8,3.8,0,0,0,1.97.369,3.191,3.191,0,0,0,1.79-.656l1.135-2.341-1.53-.741q-3.585-1.737-4.6.36a1.974,1.974,0,0,0-.084,1.732A2.611,2.611,0,0,0,243.941,77" fill="#fff"/>
      <path id="Path_367" data-name="Path 367" d="M256.636,84.141a3.128,3.128,0,0,0,2.092.479,2.474,2.474,0,0,0,1.747-.98l1.738,1.088a3.933,3.933,0,0,1-1.736,1.36,4.939,4.939,0,0,1-2.4.352,5.327,5.327,0,0,1-2.381-.8,5.225,5.225,0,0,1-2.576-3.651,6.891,6.891,0,0,1,1.212-4.82l.194-.307a7.613,7.613,0,0,1,2.322-2.431,5.173,5.173,0,0,1,2.842-.862,5.532,5.532,0,0,1,2.97.919,5.09,5.09,0,0,1,2.328,2.963,4.567,4.567,0,0,1-.483,3.61l-1.738-1.088a2.993,2.993,0,0,0,.282-2.208A2.9,2.9,0,0,0,261.717,76a3.031,3.031,0,0,0-2.8-.349,5.577,5.577,0,0,0-2.594,2.433l-.218.348a5.472,5.472,0,0,0-1.026,3.34,3.051,3.051,0,0,0,1.558,2.371" fill="#fff"/>
      <path id="Path_368" data-name="Path 368" d="M268.918,87.433l-1.944.279-2.743,3.509-1.708-1.335L273.608,75.7l1.708,1.335-6.7,8.578,1.773-.384,5.68-.856L278.144,86l-7.15,1.135-.207,9.209-2-1.566Z" fill="#fff"/>
      <path id="Path_369" data-name="Path 369" d="M280.655,106.423a5.539,5.539,0,0,1-1.618-4.224,6.285,6.285,0,0,1,2.214-4.27l.292-.271A7.589,7.589,0,0,1,284.5,95.89a5.623,5.623,0,0,1,3.072-.1,5.072,5.072,0,0,1,2.526,1.483,4.75,4.75,0,0,1,1.425,3.924,7.05,7.05,0,0,1-2.48,4.182l-.66.614L282.531,99.7a4.5,4.5,0,0,0-1.471,2.865,3.442,3.442,0,0,0,.971,2.738,3.772,3.772,0,0,0,1.668,1.1,4.882,4.882,0,0,0,1.86.175l.147,1.671a5.324,5.324,0,0,1-5.051-1.831m8.138-7.941a2.889,2.889,0,0,0-2.2-.962,4.637,4.637,0,0,0-2.711,1.018l4.327,4.649.12-.111a4.135,4.135,0,0,0,1.268-2.4,2.722,2.722,0,0,0-.8-2.2" fill="#fff"/>
      <path id="Path_370" data-name="Path 370" d="M297.5,106.288l-1.236,1.009a4.627,4.627,0,0,1,3.736,1.95q2.4,3.222-1.212,5.962l-6.716,5.01-1.3-1.739,6.726-5.016a2.921,2.921,0,0,0,1.25-1.714,2.516,2.516,0,0,0-.618-1.929,3.133,3.133,0,0,0-1.559-1.147,3.822,3.822,0,0,0-1.927-.114l-7.242,5.4-1.3-1.737,10.164-7.582Z" fill="#fff"/>
      <path id="Path_371" data-name="Path 371" d="M299.46,119.651a7.424,7.424,0,0,1,4.75-1.174,4.7,4.7,0,0,1,3.823,6.046l5.707-3.334,1.094,1.872-15.543,9.079-1-1.721,1.12-.776a4.417,4.417,0,0,1-3.2-2.323,4.331,4.331,0,0,1-.253-4.012,7.514,7.514,0,0,1,3.368-3.575Zm.881,2a5.627,5.627,0,0,0-2.465,2.471,2.88,2.88,0,0,0,.189,2.74,3.164,3.164,0,0,0,3.118,1.666l5.029-2.938a3.186,3.186,0,0,0,.041-3.484,2.889,2.889,0,0,0-2.315-1.524,6.184,6.184,0,0,0-3.6,1.069" fill="#fff"/>
      <path id="Path_372" data-name="Path 372" d="M141.9,35.9l-4.518-16.453,5.379-1.478a6.485,6.485,0,0,1,4.333,0,4.142,4.142,0,0,1,2.25,2.908,3.468,3.468,0,0,1-.1,2.219,4.41,4.41,0,0,1-1.409,1.864,3.952,3.952,0,0,1,2.5.838,4.226,4.226,0,0,1,1.459,2.28,4.567,4.567,0,0,1-.48,3.875,6.158,6.158,0,0,1-3.71,2.379Zm-.422-10.031,3.278-.9a3.565,3.565,0,0,0,2.081-1.338,2.478,2.478,0,0,0,.321-2.171,2.436,2.436,0,0,0-1.333-1.759,4.027,4.027,0,0,0-2.577.044l-3.209.881Zm.479,1.74,1.626,5.921,3.582-.984a3.575,3.575,0,0,0,2.174-1.441,2.863,2.863,0,0,0,.282-2.4q-.816-2.972-4.048-2.084Z" fill="#fff"/>
      <path id="Path_373" data-name="Path 373" d="M164.07,29.479a4.6,4.6,0,0,1-3.4,2.117,3.942,3.942,0,0,1-3.247-.616,5.1,5.1,0,0,1-1.668-3.244l-1.449-8.122,2.135-.381,1.438,8.064q.507,2.838,2.814,2.426a3.244,3.244,0,0,0,2.928-2.4l-1.619-9.08,2.133-.381,2.228,12.483-2.03.363Z" fill="#fff"/>
      <path id="Path_374" data-name="Path 374" d="M177.258,25.8a1.6,1.6,0,0,0-.787-1.3,6.368,6.368,0,0,0-2.376-.619,10.9,10.9,0,0,1-2.681-.6,3.715,3.715,0,0,1-1.533-1.033,2.79,2.79,0,0,1-.611-1.567,3.286,3.286,0,0,1,1.066-2.748,5.142,5.142,0,0,1,3.253-1.388,5.3,5.3,0,0,1,3.587.781,3.539,3.539,0,0,1,1.6,2.71l-2.17.2a1.958,1.958,0,0,0-.9-1.458,2.834,2.834,0,0,0-1.956-.464,2.965,2.965,0,0,0-1.8.686,1.624,1.624,0,0,0-.539,1.4,1.314,1.314,0,0,0,.729,1.121,7.635,7.635,0,0,0,2.305.549,11.709,11.709,0,0,1,2.7.617,3.845,3.845,0,0,1,1.6,1.069,2.992,2.992,0,0,1,.646,1.675,3.244,3.244,0,0,1-1.1,2.839,5.7,5.7,0,0,1-3.416,1.351,6.374,6.374,0,0,1-2.733-.285,4.375,4.375,0,0,1-1.967-1.328A3.636,3.636,0,0,1,169.332,26l2.158-.2a2.247,2.247,0,0,0,1.032,1.64,3.386,3.386,0,0,0,2.2.434,3.5,3.5,0,0,0,1.92-.68,1.528,1.528,0,0,0,.616-1.394" fill="#fff"/>
      <path id="Path_375" data-name="Path 375" d="M182.751,12.8a1.3,1.3,0,0,1,.292-.9,1.212,1.212,0,0,1,.943-.395,1.232,1.232,0,0,1,.972.331,1.276,1.276,0,0,1,.357.879,1.241,1.241,0,0,1-.3.89,1.255,1.255,0,0,1-.95.383,1.225,1.225,0,0,1-.965-.32,1.246,1.246,0,0,1-.352-.867m2.876,15.956-2.167.072-.422-12.673,2.167-.072Z" fill="#fff"/>
      <path id="Path_376" data-name="Path 376" d="M192.22,16.01l.024,1.6a4.616,4.616,0,0,1,3.848-1.717q4.019.117,3.922,4.651l-.244,8.375-2.167-.063.244-8.387a2.919,2.919,0,0,0-.568-2.045,2.517,2.517,0,0,0-1.9-.712,3.135,3.135,0,0,0-1.867.509,3.814,3.814,0,0,0-1.285,1.439l-.263,9.032-2.167-.063.369-12.675Z" fill="#fff"/>
      <path id="Path_377" data-name="Path 377" d="M208.848,30.024a5.537,5.537,0,0,1-3.978-2.154,6.286,6.286,0,0,1-1.1-4.683l.045-.4a7.624,7.624,0,0,1,1.1-3.267,5.614,5.614,0,0,1,2.263-2.079,5.072,5.072,0,0,1,2.883-.518,4.753,4.753,0,0,1,3.637,2.051,7.058,7.058,0,0,1,.838,4.789l-.1.9L205.9,23.7a4.513,4.513,0,0,0,.748,3.134,3.445,3.445,0,0,0,2.52,1.446,3.772,3.772,0,0,0,1.985-.247,4.874,4.874,0,0,0,1.525-1.078l1.2,1.174a5.326,5.326,0,0,1-5.027,1.9m1.01-11.325a2.888,2.888,0,0,0-2.3.7,4.635,4.635,0,0,0-1.395,2.537l6.31.714.019-.163a4.132,4.132,0,0,0-.6-2.644,2.723,2.723,0,0,0-2.041-1.145" fill="#fff"/>
      <path id="Path_378" data-name="Path 378" d="M224.771,28.99a1.6,1.6,0,0,0-.386-1.468,6.354,6.354,0,0,0-2.1-1.267,10.966,10.966,0,0,1-2.4-1.333,3.711,3.711,0,0,1-1.176-1.426,2.805,2.805,0,0,1-.142-1.677,3.291,3.291,0,0,1,1.8-2.332,5.15,5.15,0,0,1,3.513-.407,5.3,5.3,0,0,1,3.218,1.768,3.539,3.539,0,0,1,.767,3.053l-2.139-.421a1.961,1.961,0,0,0-.445-1.652,2.827,2.827,0,0,0-1.744-1,2.967,2.967,0,0,0-1.916.148,1.621,1.621,0,0,0-.916,1.194,1.315,1.315,0,0,0,.38,1.281,7.658,7.658,0,0,0,2.055,1.181,11.652,11.652,0,0,1,2.414,1.359,3.842,3.842,0,0,1,1.232,1.478,3,3,0,0,1,.143,1.791,3.249,3.249,0,0,1-1.86,2.41,5.7,5.7,0,0,1-3.659.325,6.384,6.384,0,0,1-2.54-1.05,4.375,4.375,0,0,1-1.509-1.832,3.625,3.625,0,0,1-.246-2.18l2.128.418a2.242,2.242,0,0,0,.522,1.866,3.387,3.387,0,0,0,1.986,1.042,3.5,3.5,0,0,0,2.035-.108,1.527,1.527,0,0,0,.986-1.161" fill="#fff"/>
      <path id="Path_379" data-name="Path 379" d="M237.624,32.305a1.594,1.594,0,0,0-.266-1.494,6.383,6.383,0,0,0-1.993-1.435,10.887,10.887,0,0,1-2.285-1.522,3.721,3.721,0,0,1-1.057-1.517,2.809,2.809,0,0,1,0-1.682A3.29,3.29,0,0,1,234,22.477a5.145,5.145,0,0,1,3.535-.121,5.3,5.3,0,0,1,3.064,2.022,3.539,3.539,0,0,1,.516,3.106l-2.1-.593a1.956,1.956,0,0,0-.309-1.683,2.835,2.835,0,0,0-1.657-1.138,2.966,2.966,0,0,0-1.922-.008,1.624,1.624,0,0,0-1.01,1.115,1.314,1.314,0,0,0,.275,1.308,7.643,7.643,0,0,0,1.953,1.343,11.688,11.688,0,0,1,2.295,1.551,3.837,3.837,0,0,1,1.109,1.573,2.994,2.994,0,0,1,0,1.8A3.244,3.244,0,0,1,237.7,35a5.707,5.707,0,0,1-3.674.027,6.388,6.388,0,0,1-2.447-1.252,4.38,4.38,0,0,1-1.354-1.948,3.625,3.625,0,0,1-.069-2.193l2.086.59a2.244,2.244,0,0,0,.37,1.9,3.388,3.388,0,0,0,1.9,1.2,3.5,3.5,0,0,0,2.036.057,1.527,1.527,0,0,0,1.077-1.077" fill="#fff"/>
    </g>
    <text id="Internal_Insights" data-name="Internal
Insights" transform="translate(1594 7217)" fill="#fff" font-size="36" font-family="Roboto-Regular, Roboto"><tspan x="-60.425" y="0">Internal</tspan><tspan x="-63.65" y="48">Insights</tspan></text>
    <path id="Path_380" data-name="Path 380" d="M1258-3798v213.088" transform="translate(332 10767.912)" fill="none" stroke="#fff" stroke-linecap="round" stroke-width="2"/>
  </g>
</svg>
