<svg xmlns="http://www.w3.org/2000/svg" width="71.92" height="77" viewBox="0 0 71.92 77">
  <g id="Transformation_icon" data-name="Transformation icon" transform="translate(-1.5 -1.5)">
    <path id="Path_70" data-name="Path 70" d="M66.415,45.59a21.347,21.347,0,0,0,.129,42.685" transform="translate(-26.923 -26.931)" fill="none" stroke="#fff" stroke-linecap="round" stroke-linejoin="round" stroke-width="2"/>
    <path id="Path_71" data-name="Path 71" d="M59.076,109.542A16.5,16.5,0,0,0,75.357,123.4v9.656" transform="translate(-35.36 -66.901)" fill="none" stroke="#fff" stroke-linecap="round" stroke-linejoin="round" stroke-width="2"/>
    <path id="Path_72" data-name="Path 72" d="M40,138.335V144.4H35.432a1.456,1.456,0,0,1-1.456-1.456v-6.531a1.449,1.449,0,0,0-1.087-1.406,28.774,28.774,0,0,1-7.728-3.206,1.449,1.449,0,0,0-1.766.225l-4.621,4.621a1.458,1.458,0,0,1-2.061,0l-6.46-6.46a1.456,1.456,0,0,1,0-2.06l4.622-4.622a1.448,1.448,0,0,0,.224-1.766,28.812,28.812,0,0,1-3.206-7.726,1.448,1.448,0,0,0-1.406-1.087H3.958A1.459,1.459,0,0,1,2.5,111.469v-1.927" transform="translate(0 -66.901)" fill="none" stroke="#fff" stroke-linecap="round" stroke-linejoin="round" stroke-width="2"/>
    <path id="Path_73" data-name="Path 73" d="M59.076,37.359A16.5,16.5,0,0,1,75.357,23.5V2.5H70.792a1.456,1.456,0,0,0-1.456,1.457v6.531a1.449,1.449,0,0,1-1.087,1.407q-.611.154-1.212.335" transform="translate(-35.36)" fill="none" stroke="#fff" stroke-linecap="round" stroke-linejoin="round" stroke-width="2"/>
    <path id="Path_74" data-name="Path 74" d="M2.5,49.571V47.644a1.457,1.457,0,0,1,1.458-1.458h6.53A1.447,1.447,0,0,0,11.894,45.1,28.812,28.812,0,0,1,15.1,37.373a1.448,1.448,0,0,0-.224-1.766l-4.622-4.622a1.456,1.456,0,0,1,0-2.06l6.46-6.461a1.458,1.458,0,0,1,2.061,0L23.4,27.086a1.449,1.449,0,0,0,1.766.225q.792-.475,1.617-.9" transform="translate(0 -12.211)" fill="none" stroke="#fff" stroke-linecap="round" stroke-linejoin="round" stroke-width="2"/>
    <rect id="Rectangle_14" data-name="Rectangle 14" width="7.52" height="7.52" rx="2.012" transform="translate(44.816 16.156)" fill="none" stroke="#fff" stroke-linecap="round" stroke-linejoin="round" stroke-width="2"/>
    <rect id="Rectangle_15" data-name="Rectangle 15" width="7.52" height="7.52" rx="2.012" transform="translate(44.816 36.24)" fill="none" stroke="#fff" stroke-linecap="round" stroke-linejoin="round" stroke-width="2"/>
    <rect id="Rectangle_16" data-name="Rectangle 16" width="7.52" height="7.52" rx="2.012" transform="translate(64.9 36.24)" fill="none" stroke="#fff" stroke-linecap="round" stroke-linejoin="round" stroke-width="2"/>
    <rect id="Rectangle_17" data-name="Rectangle 17" width="7.52" height="7.52" rx="2.012" transform="translate(54.858 26.198)" fill="none" stroke="#fff" stroke-linecap="round" stroke-linejoin="round" stroke-width="2"/>
    <rect id="Rectangle_18" data-name="Rectangle 18" width="7.52" height="7.52" rx="2.012" transform="translate(44.816 56.323)" fill="none" stroke="#fff" stroke-linecap="round" stroke-linejoin="round" stroke-width="2"/>
    <rect id="Rectangle_19" data-name="Rectangle 19" width="7.52" height="7.52" rx="2.012" transform="translate(54.858 46.282)" fill="none" stroke="#fff" stroke-linecap="round" stroke-linejoin="round" stroke-width="2"/>
    <rect id="Rectangle_20" data-name="Rectangle 20" width="4.191" height="4.191" transform="translate(46.481 47.946)" fill="none" stroke="#fff" stroke-linecap="round" stroke-linejoin="round" stroke-width="2"/>
    <rect id="Rectangle_21" data-name="Rectangle 21" width="4.191" height="4.191" transform="translate(46.481 68.03)" fill="none" stroke="#fff" stroke-linecap="round" stroke-linejoin="round" stroke-width="2"/>
    <rect id="Rectangle_22" data-name="Rectangle 22" width="4.191" height="4.191" transform="translate(56.523 57.988)" fill="none" stroke="#fff" stroke-linecap="round" stroke-linejoin="round" stroke-width="2"/>
    <rect id="Rectangle_23" data-name="Rectangle 23" width="4.191" height="4.191" transform="translate(66.565 47.946)" fill="none" stroke="#fff" stroke-linecap="round" stroke-linejoin="round" stroke-width="2"/>
    <rect id="Rectangle_24" data-name="Rectangle 24" width="4.191" height="4.191" transform="translate(46.481 27.863)" fill="none" stroke="#fff" stroke-linecap="round" stroke-linejoin="round" stroke-width="2"/>
    <rect id="Rectangle_25" data-name="Rectangle 25" width="4.191" height="4.191" transform="translate(46.481 7.78)" fill="none" stroke="#fff" stroke-linecap="round" stroke-linejoin="round" stroke-width="2"/>
    <rect id="Rectangle_26" data-name="Rectangle 26" width="4.191" height="4.191" transform="translate(66.565 27.863)" fill="none" stroke="#fff" stroke-linecap="round" stroke-linejoin="round" stroke-width="2"/>
    <rect id="Rectangle_27" data-name="Rectangle 27" width="4.191" height="4.191" transform="translate(56.523 37.904)" fill="none" stroke="#fff" stroke-linecap="round" stroke-linejoin="round" stroke-width="2"/>
    <rect id="Rectangle_28" data-name="Rectangle 28" width="4.191" height="4.191" transform="translate(56.523 17.821)" fill="none" stroke="#fff" stroke-linecap="round" stroke-linejoin="round" stroke-width="2"/>
    <rect id="Rectangle_29" data-name="Rectangle 29" width="4.191" height="4.191" transform="translate(36.44 37.905)" fill="none" stroke="#fff" stroke-linecap="round" stroke-linejoin="round" stroke-width="2"/>
    <rect id="Rectangle_30" data-name="Rectangle 30" width="4.191" height="4.191" transform="translate(36.44 37.905)" fill="none" stroke="#fff" stroke-linecap="round" stroke-linejoin="round" stroke-width="2"/>
    <rect id="Rectangle_31" data-name="Rectangle 31" width="4.191" height="4.191" transform="translate(28.063 37.905)" fill="none" stroke="#fff" stroke-linecap="round" stroke-linejoin="round" stroke-width="2"/>
    <rect id="Rectangle_32" data-name="Rectangle 32" width="4.191" height="4.191" transform="translate(36.44 27.863)" fill="none" stroke="#fff" stroke-linecap="round" stroke-linejoin="round" stroke-width="2"/>
    <rect id="Rectangle_33" data-name="Rectangle 33" width="4.191" height="4.191" transform="translate(36.44 47.947)" fill="none" stroke="#fff" stroke-linecap="round" stroke-linejoin="round" stroke-width="2"/>
  </g>
</svg>
